#!OML:ASF I:\golf\golf\golf 2\Subject 1\2002-09-07\Subject1.ASF
:FULLY-SPECIFIED
:DEGREES
401
root 0.269252 13.3029 -4.7073 16.9172 6.62957 -1.96882
lowerback 35.2632 7.47783 2.46921
upperback 15.6233 10.3693 7.97184
thorax -1.55482 4.83983 3.67954
lowerneck -17.071 -7.16064 -4.39437
upperneck 18.8845 -7.78334 -3.62666
head 8.75461 -4.30184 -1.47595
rclavicle -5.08889e-014 6.36111e-015
rhumerus 34.2784 -4.10154 -66.445
rradius 19.972
rwrist 22.3704
rhand -28.9887 12.0676
rfingers 7.12502
rthumb -2.34081 -17.8993
lclavicle -5.08889e-014 6.36111e-015
lhumerus -34.3952 -35.6196 99.9449
lradius 88.3996
lwrist -5.7558
lhand -44.6104 16.6677
lfingers 7.12502
lthumb -17.4087 45.9081
rfemur -84.1006 -36.5711 39.993
rtibia 104.93
rfoot -25.2758 8.01522
rtoes 8.58656
lfemur -79.2343 14.3543 -18.6119
ltibia 101.21
lfoot -24.5405 -14.0481
ltoes -13.6385
402
root 0.260026 13.443 -4.71706 17.1892 6.67729 -2.27357
lowerback 35.0389 7.43929 2.71796
upperback 15.4238 10.4001 7.93028
thorax -1.64738 4.86682 3.5052
lowerneck -17.199 -7.13253 -4.141
upperneck 18.9135 -7.8152 -3.58586
head 8.77622 -4.29585 -1.5115
rclavicle -9.54166e-014 -1.59028e-014
rhumerus 33.6337 -3.48922 -65.7832
rradius 20.6328
rwrist 21.6455
rhand -27.4432 11.3503
rfingers 7.12502
rthumb -0.848155 -18.6278
lclavicle -9.54166e-014 -1.59028e-014
lhumerus -34.4286 -35.7443 99.8925
lradius 88.2244
lwrist -5.05829
lhand -43.9561 16.375
lfingers 7.12502
lthumb -16.7789 45.67
rfemur -83.2145 -35.7529 40.2418
rtibia 103.374
rfoot -25.2328 7.19181
rtoes 7.7457
lfemur -78.7716 14.302 -18.303
ltibia 99.8232
lfoot -24.249 -13.9046
ltoes -13.8808
403
root 0.249224 13.5811 -4.72822 17.5311 6.71005 -2.53083
lowerback 34.7704 7.40234 2.91123
upperback 15.1781 10.4182 7.88715
thorax -1.78223 4.88469 3.36029
lowerneck -17.2681 -7.12139 -3.97283
upperneck 18.9588 -7.84824 -3.55466
head 8.79683 -4.29692 -1.53539
rclavicle -6.04305e-014 5.40694e-014
rhumerus 32.938 -2.70969 -65.1423
rradius 21.2454
rwrist 20.2297
rhand -26.4483 10.8928
rfingers 7.12502
rthumb 0.112787 -19.0869
lclavicle -6.04305e-014 5.40694e-014
lhumerus -34.5535 -35.806 99.9139
lradius 87.9675
lwrist -4.6209
lhand -43.1857 16.5124
lfingers 7.12502
lthumb -16.0372 45.8686
rfemur -82.5167 -34.9108 40.4991
rtibia 101.857
rfoot -25.0895 6.43966
rtoes 7.19435
lfemur -78.3449 14.2287 -18.0315
ltibia 98.4127
lfoot -23.8944 -13.751
ltoes -14.0934
404
root 0.236733 13.6853 -4.74809 17.843 7.08655 -2.59924
lowerback 34.6622 7.21633 3.15635
upperback 14.8835 10.2877 7.86072
thorax -2.01336 4.83061 3.23786
lowerneck -17.137 -7.11486 -3.8089
upperneck 18.7948 -7.90856 -3.4952
head 8.7113 -4.30707 -1.53777
rclavicle -1.90833e-014 -7.15625e-014
rhumerus 32.2799 -1.23967 -63.8073
rradius 21.9167
rwrist 17.4043
rhand -25.967 10.2197
rfingers 7.12502
rthumb 0.577658 -19.7593
lclavicle -1.90833e-014 -7.15625e-014
lhumerus -34.6117 -36.0068 99.988
lradius 87.5114
lwrist -3.83108
lhand -43.4204 16.1053
lfingers 7.12502
lthumb -16.2632 45.4432
rfemur -82.1645 -34.478 40.7181
rtibia 100.543
rfoot -24.8829 5.8055
rtoes 7.11592
lfemur -78.1661 13.7463 -17.8624
ltibia 97.1461
lfoot -23.407 -13.597
ltoes -14.0958
405
root 0.230842 13.8256 -4.76172 18.1129 7.11694 -2.46146
lowerback 34.3936 7.18319 3.08607
upperback 14.6751 10.2305 7.78568
thorax -2.14015 4.80455 3.21817
lowerneck -16.9599 -7.11068 -3.79562
upperneck 18.6832 -7.94546 -3.37128
head 8.64603 -4.30985 -1.49235
rclavicle -1.90833e-014 1.27222e-014
rhumerus 31.3144 -0.151628 -62.9862
rradius 22.7507
rwrist 15.0379
rhand -25.4268 9.6613
rfingers 7.12502
rthumb 1.09933 -20.3156
lclavicle -1.90833e-014 1.27222e-014
lhumerus -34.7039 -36.2177 100.128
lradius 87.1096
lwrist -2.91452
lhand -43.4039 15.9841
lfingers 7.12502
lthumb -16.2473 45.3233
rfemur -81.5017 -34.0103 40.5363
rtibia 99.0497
rfoot -24.6827 5.2957
rtoes 7.4019
lfemur -77.5408 13.4276 -18.0128
ltibia 95.6589
lfoot -23.0156 -13.3811
ltoes -13.4084
406
root 0.234353 13.9802 -4.75734 18.2355 6.66359 -2.18073
lowerback 33.9772 7.34959 2.68315
upperback 14.6044 10.2935 7.63512
thorax -2.10905 4.8303 3.27173
lowerneck -16.8726 -7.08641 -3.85908
upperneck 18.745 -7.9442 -3.15985
head 8.66364 -4.29123 -1.41038
rclavicle -2.8625e-014 1.59028e-015
rhumerus 30.4879 0.519373 -62.4498
rradius 23.4862
rwrist 13.5997
rhand -24.4343 9.32306
rfingers 7.12502
rthumb 2.05795 -20.6468
lclavicle -2.8625e-014 1.59028e-015
lhumerus -34.9066 -36.3909 100.28
lradius 86.7787
lwrist -2.07121
lhand -42.6285 15.8279
lfingers 7.12502
lthumb -15.5006 45.2265
rfemur -80.42 -33.4286 39.8486
rtibia 97.5154
rfoot -24.5173 5.00008
rtoes 8.34718
lfemur -76.4145 13.4436 -18.4104
ltibia 94.0911
lfoot -22.7857 -13.0751
ltoes -12.6177
407
root 0.228378 14.1185 -4.76729 18.4854 6.74688 -2.01469
lowerback 33.5027 7.25197 2.46087
upperback 14.492 10.1084 7.63732
thorax -2.09018 4.73964 3.47454
lowerneck -16.8173 -6.99728 -3.9734
upperneck 18.6638 -7.8208 -3.05391
head 8.63616 -4.23089 -1.3377
rclavicle -1.90833e-014 -9.54166e-015
rhumerus 29.9251 1.17688 -61.9952
rradius 24.209
rwrist 12.9536
rhand -23.6689 9.13278
rfingers 7.12502
rthumb 2.7971 -20.8286
lclavicle -1.90833e-014 -9.54166e-015
lhumerus -34.9672 -36.2793 100.428
lradius 86.2922
lwrist -1.20759
lhand -42.3258 14.7085
lfingers 7.12502
lthumb -15.209 44.1295
rfemur -79.7038 -33.0355 39.6094
rtibia 96.0155
rfoot -24.2529 4.58206
rtoes 8.93984
lfemur -75.7227 13.0967 -18.5598
ltibia 92.52
lfoot -22.2344 -13.0179
ltoes -11.7533
408
root 0.222807 14.2598 -4.7723 18.6832 6.70364 -2.06568
lowerback 33.0168 7.19743 2.42552
upperback 14.5571 10.0088 7.61687
thorax -1.8402 4.69918 3.5515
lowerneck -17.2631 -6.95722 -3.90416
upperneck 18.5969 -7.76326 -3.06712
head 8.68846 -4.20305 -1.36187
rclavicle -9.54166e-015 2.54444e-014
rhumerus 29.6132 1.43521 -61.7129
rradius 24.9367
rwrist 12.718
rhand -23.2946 9.07534
rfingers 7.12502
rthumb 3.15856 -20.881
lclavicle -9.54166e-015 2.54444e-014
lhumerus -34.4744 -36.2892 100.21
lradius 85.9721
lwrist -0.981681
lhand -41.3474 16.1723
lfingers 7.12502
lthumb -14.2664 45.6623
rfemur -78.7601 -32.4164 39.4589
rtibia 94.453
rfoot -24.0777 4.15794
rtoes 9.18192
lfemur -74.9557 12.9826 -18.5014
ltibia 90.9109
lfoot -21.7804 -12.9417
ltoes -11.2941
409
root 0.212442 14.3966 -4.78321 18.9722 6.72645 -1.89401
lowerback 32.2378 7.21893 2.43465
upperback 14.7801 10.0092 7.33941
thorax -1.51682 4.73062 3.52202
lowerneck -17.8714 -7.03019 -3.5054
upperneck 18.6351 -7.96561 -2.96882
head 8.7936 -4.26159 -1.44198
rclavicle 1.59028e-014 -2.22639e-014
rhumerus 29.063 1.24778 -61.539
rradius 25.7033
rwrist 12.0386
rhand -22.9899 9.09666
rfingers 7.12502
rthumb 3.45289 -20.8551
lclavicle 1.59028e-014 -2.22639e-014
lhumerus -33.9111 -36.9427 99.7484
lradius 85.5244
lwrist -0.436453
lhand -40.8329 17.2272
lfingers 7.12502
lthumb -13.7706 46.7515
rfemur -78.0224 -31.883 39.1535
rtibia 92.9462
rfoot -23.9145 3.78282
rtoes 9.5471
lfemur -74.2919 12.7106 -18.6801
ltibia 89.2931
lfoot -21.4414 -12.6644
ltoes -11.673
410
root 0.205824 14.5305 -4.79553 19.2707 6.74695 -1.69497
lowerback 31.8491 7.20871 2.44992
upperback 14.6259 9.98846 7.15623
thorax -1.49161 4.73289 3.34164
lowerneck -18.045 -7.06041 -3.24465
upperneck 18.6114 -8.10988 -2.80236
head 8.81008 -4.29361 -1.45134
rclavicle -3.49861e-014 3.33958e-014
rhumerus 28.1843 1.49855 -61.1927
rradius 26.5402
rwrist 10.7756
rhand -22.7805 9.08329
rfingers 7.12502
rthumb 3.65511 -20.8651
lclavicle -3.49861e-014 3.33958e-014
lhumerus -33.7201 -37.4473 99.5643
lradius 84.8865
lwrist 0.0992064
lhand -40.7829 16.7266
lfingers 7.12502
lthumb -13.7224 46.2542
rfemur -77.3172 -31.3556 38.7929
rtibia 91.4279
rfoot -23.6431 3.42071
rtoes 9.86663
lfemur -73.6776 12.4088 -18.8932
ltibia 87.7072
lfoot -20.9828 -12.459
ltoes -11.6306
